<svg xmlns="http://www.w3.org/2000/svg" xmlns:xlink="http://www.w3.org/1999/xlink" viewBox="-9619 -3376.67 585.685 140.688">
  <defs>
    <style>
      .cls-1 {
        fill: #ff8237;
      }

      .cls-2 {
        fill: url(#linear-gradient);
      }

      .cls-3 {
        fill: none;
      }

      .cls-4 {
        fill: #fff;
      }
    </style>
    <linearGradient id="linear-gradient" x1="0.999" y1="0.502" x2="0.001" y2="0.502" gradientUnits="objectBoundingBox">
      <stop offset="0" stop-color="#c7b299" stop-opacity="0.502"/>
      <stop offset="0.325" stop-color="#c7b299" stop-opacity="0.502"/>
      <stop offset="0.775" stop-color="#a67c52"/>
      <stop offset="0.989" stop-color="#666"/>
    </linearGradient>
  </defs>
  <g id="Group_1165" data-name="Group 1165" transform="translate(-9619 -3376.67)">
    <g id="Group_1162" data-name="Group 1162" transform="translate(552.585 0.133)">
      <rect id="Rectangle_1531" data-name="Rectangle 1531" class="cls-1" width="87.605" height="17.917" transform="translate(2.483 92.584) rotate(-81.535)"/>
      <path id="Path_90" data-name="Path 90" class="cls-2" d="M331.5,55.3l5.955,19.751L349.2,57.923Z" transform="translate(-328.989 37.338)"/>
      <path id="Path_91" data-name="Path 91" d="M334.457,65.8l5.251.656-3.447,5.26Z" transform="matrix(1, 0.017, -0.017, 1, -326.543, 34.962)"/>
      <g id="Group_1161" data-name="Group 1161" transform="translate(-1 124.45)">
        <g id="Group_1160" data-name="Group 1160">
          <g id="Group_1159" data-name="Group 1159">
            <path id="Path_92" data-name="Path 92" class="cls-1" d="M337.87,74.4a7.593,7.593,0,0,1,5.526,2.344,7.88,7.88,0,0,1,2.344,5.526A7.593,7.593,0,0,1,343.4,87.8a7.88,7.88,0,0,1-5.526,2.344,7.593,7.593,0,0,1-5.526-2.344A7.88,7.88,0,0,1,330,82.27a8.008,8.008,0,0,1,7.87-7.87Z" transform="translate(-330 -74.4)"/>
          </g>
        </g>
      </g>
      <line id="Line_70" data-name="Line 70" class="cls-3" x1="7.033" y1="1.005" transform="translate(2.512 92.467)"/>
    </g>
    <g id="Group_1163" data-name="Group 1163" transform="translate(0 70.329)">
      <path id="Path_93" data-name="Path 93" class="cls-4" d="M0,43.8H51.24V57.029H32.15v53.249H18.419V57.029H0Z" transform="translate(0 -40.786)"/>
      <path id="Path_94" data-name="Path 94" class="cls-4" d="M34.1,103.9V54H46.994v3.349A13.111,13.111,0,0,1,56.706,53a15.06,15.06,0,0,1,9.712,3.182L62.734,69.075a13.3,13.3,0,0,0-7.87-3.014A10.21,10.21,0,0,0,49,68.071,7.213,7.213,0,0,0,46.994,73.6V103.57H34.1Z" transform="translate(23 -34.581)"/>
      <path id="Path_95" data-name="Path 95" class="cls-4" d="M81.711,103.776v-3.516a16.674,16.674,0,0,1-12.224,4.354,18.316,18.316,0,0,1-12.559-5.023c-3.516-3.182-5.191-7.87-5.023-13.563s2.512-9.712,6.7-12.056A25.9,25.9,0,0,1,72.166,70.62c4.856.167,7.87.837,9.377,2.009V69.951a6.247,6.247,0,0,0-2.009-4.521c-1.34-1.34-3.851-1.842-7.87-1.674a20.754,20.754,0,0,0-11.052,3.684l-5.024-9.377A32.869,32.869,0,0,1,73,53.206c6.363-.167,11.554,1.172,15.405,3.851s5.861,7.2,5.861,13.563v33.323H81.711Zm0-14.9V83.012a17.715,17.715,0,0,0-7.7-2.344,11.185,11.185,0,0,0-6.363,1.34,5.783,5.783,0,0,0-2.679,4.856,5.93,5.93,0,0,0,2.177,5.023q2.261,1.758,6.531,1.507C76.687,93.226,79.2,91.719,81.711,88.872Z" transform="translate(35.002 -34.451)"/>
      <path id="Path_96" data-name="Path 96" class="cls-4" d="M95.6,54.078v3.014a20.734,20.734,0,0,1,13.229-4.186,17.8,17.8,0,0,1,11.889,5.358c3.349,3.349,4.856,8.54,4.856,15.74V103.81H112.676V73.669a8.717,8.717,0,0,0-2.512-5.861,7.887,7.887,0,0,0-6.2-2.679,8.076,8.076,0,0,0-6.2,2.512A8.368,8.368,0,0,0,95.429,73.5v30.476H82.367l-.167-49.9H95.6Z" transform="translate(55.444 -34.654)"/>
      <path id="Path_97" data-name="Path 97" class="cls-4" d="M151.821,57.426l-4.186,10.717c-5.024-2.512-9.377-3.851-12.894-4.019s-5.861,0-7.033.67a2.808,2.808,0,0,0-1.507,3.014c.167,1.34,2.177,2.679,6.363,3.851,4.019,1.34,8.54,3.182,13.4,5.358,4.856,2.344,7.2,6.363,7.2,11.889s-2.009,9.712-5.861,12.224q-5.777,3.516-15.071,3.516c-6.2,0-13.061-2.009-20.429-5.526l4.856-10.549a37.145,37.145,0,0,0,13.229,4.689c4.019.5,6.7.167,8.372-.67a3.266,3.266,0,0,0,1.842-3.684c-.335-1.507-3.014-3.014-7.7-4.186A55.9,55.9,0,0,1,119.5,79.7q-5.777-3.265-6.028-11.052c-.167-5.191,1.34-9.042,4.856-11.721,3.349-2.679,8.205-4.019,14.233-4.019C138.424,52.737,144.788,54.412,151.821,57.426Z" transform="translate(75.409 -34.653)"/>
      <path id="Path_98" data-name="Path 98" class="cls-4" d="M182.175,63.668l-9.042,8.875c-2.679-4.019-5.693-6.2-9.377-6.7a9.75,9.75,0,0,0-8.707,2.679c-2.177,2.177-3.349,5.191-3.684,9.042a16.567,16.567,0,0,0,2.177,10.047c1.842,2.847,4.689,4.186,8.707,4.354,4.019,0,7.87-2.009,11.554-6.363l8.707,8.205c-6.2,7.033-12.559,10.717-19.424,11.052a22.107,22.107,0,0,1-17.582-7.2,25.618,25.618,0,0,1-7.2-19.089c.167-7.535,2.177-13.731,6.028-18.252s9.712-7.033,17.247-7.2C168.947,52.617,175.979,56.133,182.175,63.668Z" transform="translate(93.28 -34.532)"/>
      <path id="Path_99" data-name="Path 99" class="cls-4" d="M167.5,103.9V54h12.894v3.349A13.111,13.111,0,0,1,190.106,53a15.06,15.06,0,0,1,9.712,3.182l-3.684,12.894a13.3,13.3,0,0,0-7.87-3.014,10.21,10.21,0,0,0-5.861,2.009,7.213,7.213,0,0,0-2.009,5.526V103.57H167.5Z" transform="translate(112.979 -34.581)"/>
      <path id="Path_100" data-name="Path 100" class="cls-4" d="M194.068,42.4a6.963,6.963,0,0,1,5.358,2.344,7.9,7.9,0,0,1,2.009,5.358,8.184,8.184,0,0,1-1.842,5.191c-1.172,1.507-3.014,2.177-5.358,2.177a7.071,7.071,0,0,1-5.526-2.344,7.71,7.71,0,0,1,0-10.382A6.719,6.719,0,0,1,194.068,42.4Zm-6.7,18.754h12.894v49.9H187.37Z" transform="translate(125.929 -41.73)"/>
      <path id="Path_101" data-name="Path 101" class="cls-4" d="M199.9,111.324V48.363L212.794,42V64.1a19,19,0,0,1,12.224-4.186c4.689.167,8.875,2.344,12.559,6.7s5.526,11.052,5.358,20.261-2.344,15.74-6.363,19.424-8.372,5.526-12.894,5.526-8.205-1.34-10.884-4.019v3.349H199.9Zm12.894-16.243C215.64,98.1,218.32,99.6,221,99.6a7.489,7.489,0,0,0,6.363-3.182q2.512-3.265,2.512-10.047c0-4.521-.67-7.87-2.177-10.047a7.984,7.984,0,0,0-6.531-3.684c-3.014-.167-5.693,1.172-8.372,4.186Z" transform="translate(134.832 -42)"/>
      <path id="Path_102" data-name="Path 102" class="cls-4" d="M268.664,96.772c-5.693,5.526-12.056,8.205-19.089,7.87s-12.559-2.679-16.41-7.2c-4.019-4.689-6.028-10.884-5.861-18.922,0-8.038,2.177-14.233,6.531-18.754a20.576,20.576,0,0,1,30.978.335c4.354,4.856,6.2,12.391,5.526,22.773H240.2a13.542,13.542,0,0,0,2.177,5.693c1.34,2.009,3.851,3.349,7.7,3.516a10.257,10.257,0,0,0,9.042-3.684ZM240.7,72.994h16.912a12.211,12.211,0,0,0-2.512-6.028q-1.758-2.512-6.028-2.512a7.256,7.256,0,0,0-6.028,2.512A13.8,13.8,0,0,0,240.7,72.994Z" transform="translate(153.31 -34.648)"/>
    </g>
    <g id="Group_1164" data-name="Group 1164" transform="translate(430.514 73.343)">
      <path id="Path_103" data-name="Path 103" class="cls-1" d="M268.989,43.8H281.38l10.884,40.69L317.717,43.8h12.894l-11.721,66.31H305.661L312.191,72.6l-24.783,38.514L276.189,73.439l-6.531,36.672H257.1Z" transform="translate(-257.1 -43.8)"/>
      <path id="Path_104" data-name="Path 104" class="cls-1" d="M338.339,96.772c-6.7,5.526-13.563,8.205-20.6,7.87-7.033-.167-12.056-2.679-15.238-7.2-3.182-4.689-4.019-10.884-2.512-18.922s4.689-14.233,9.88-18.754C314.9,55.244,320.422,52.9,326.45,52.9a17.037,17.037,0,0,1,14.4,7.2c3.684,4.856,4.019,12.391,1.507,22.773H312.384a10.864,10.864,0,0,0,1.172,5.693q1.507,3.265,7.033,3.516A12.708,12.708,0,0,0,330.3,88.4ZM314.561,72.994h16.913a13.343,13.343,0,0,0-1.34-6.028c-.837-1.674-2.847-2.512-5.526-2.512s-4.856.67-6.363,2.512A15.837,15.837,0,0,0,314.561,72.994Z" transform="translate(-228.659 -37.662)"/>
    </g>
    <line id="Line_71" data-name="Line 71" class="cls-3" x2="0.837" y2="20.429" transform="translate(560.455 93.605)"/>
    <line id="Line_72" data-name="Line 72" class="cls-3" x1="4.521" y1="16.075" transform="translate(555.097 92.6)"/>
    <line id="Line_73" data-name="Line 73" class="cls-3" y1="92.6" x2="13.731" transform="translate(555.097)"/>
  </g>
</svg>
